<svg width="32" height="33" viewBox="0 0 32 33" fill="none" xmlns="http://www.w3.org/2000/svg">
<path d="M16 0.344269C12.8355 0.344269 9.74207 1.28265 7.11088 3.04075C4.4797 4.79886 2.42894 7.29771 1.21793 10.2213C0.0069325 13.1449 -0.309921 16.362 0.307443 19.4657C0.924806 22.5694 2.44866 25.4203 4.6863 27.658C6.92394 29.8956 9.77486 31.4195 12.8786 32.0368C15.9823 32.6542 19.1993 32.3373 22.1229 31.1263C25.0466 29.9153 27.5454 27.8646 29.3035 25.2334C31.0616 22.6022 32 19.5088 32 16.3443C31.9955 12.1022 30.3084 8.0351 27.3088 5.03548C24.3092 2.03587 20.2421 0.348727 16 0.344269ZM1.68422 16.3443C1.69024 12.6967 3.08771 9.18892 5.5915 6.53646C8.0953 3.884 11.5168 2.28676 15.1579 2.07058V30.6179C11.5168 30.4018 8.0953 28.8045 5.5915 26.1521C3.08771 23.4996 1.69024 19.9918 1.68422 16.3443Z" fill="white"/>
</svg>
